<svg 
 xmlns="http://www.w3.org/2000/svg"
 xmlns:xlink="http://www.w3.org/1999/xlink"
 width="21px" height="20px">
<path fill-rule="evenodd"  fill="rgb(255, 255, 255)"
 d="M15.947,6.000 L15.947,5.000 C15.947,2.243 13.721,0.000 10.986,0.000 C8.251,0.000 6.025,2.243 6.025,5.000 L6.025,6.000 L0.978,6.000 L2.136,20.000 L19.836,20.000 L20.994,6.000 L15.947,6.000 ZM8.010,5.000 C8.010,3.346 9.345,2.000 10.986,2.000 C12.627,2.000 13.963,3.346 13.963,5.000 L13.963,6.000 L8.010,6.000 L8.010,5.000 ZM9.002,11.000 L5.033,11.000 L5.033,9.000 L9.002,9.000 L9.002,11.000 ZM16.939,11.000 L12.970,11.000 L12.970,9.000 L16.939,9.000 L16.939,11.000 Z"/>
</svg>