<svg 
 xmlns="http://www.w3.org/2000/svg"
 xmlns:xlink="http://www.w3.org/1999/xlink"
 width="27px" height="27px">
<path fill-rule="evenodd"  fill="rgb(255, 255, 255)"
 d="M13.500,0.748 C6.459,0.748 0.749,6.457 0.749,13.499 C0.749,18.720 3.889,23.205 8.383,25.177 C8.346,24.287 8.377,23.218 8.604,22.249 C8.849,21.215 10.244,15.301 10.244,15.301 C10.244,15.301 9.837,14.487 9.837,13.285 C9.837,11.394 10.933,9.983 12.296,9.983 C13.456,9.983 14.017,10.854 14.017,11.898 C14.017,13.064 13.273,14.807 12.891,16.422 C12.571,17.775 13.569,18.878 14.902,18.878 C17.318,18.878 18.945,15.776 18.945,12.099 C18.945,9.305 17.063,7.214 13.640,7.214 C9.773,7.214 7.363,10.097 7.363,13.319 C7.363,14.430 7.690,15.214 8.203,15.820 C8.439,16.099 8.472,16.211 8.387,16.531 C8.326,16.764 8.185,17.331 8.127,17.554 C8.042,17.877 7.781,17.993 7.489,17.873 C5.707,17.146 4.878,15.195 4.878,13.003 C4.878,9.381 7.931,5.036 13.990,5.036 C18.858,5.036 22.062,8.560 22.062,12.341 C22.062,17.343 19.281,21.079 15.181,21.079 C13.806,21.079 12.511,20.335 12.068,19.491 C12.068,19.491 11.327,22.428 11.170,22.995 C10.901,23.978 10.371,24.960 9.887,25.726 C11.033,26.065 12.245,26.250 13.500,26.250 C20.542,26.250 26.250,20.540 26.250,13.499 C26.250,6.457 20.542,0.748 13.500,0.748 "/>
</svg>