<svg 
 xmlns="http://www.w3.org/2000/svg"
 xmlns:xlink="http://www.w3.org/1999/xlink"
 width="27px" height="22px">
<path fill-rule="evenodd"  fill="rgb(255, 255, 255)"
 d="M26.294,2.598 C25.330,3.019 24.293,3.304 23.206,3.432 C24.317,2.777 25.170,1.740 25.570,0.504 C24.531,1.110 23.381,1.550 22.155,1.787 C21.176,0.758 19.778,0.116 18.231,0.116 C15.263,0.116 12.856,2.487 12.856,5.409 C12.856,5.825 12.902,6.228 12.995,6.615 C8.527,6.394 4.566,4.288 1.913,1.083 C1.450,1.868 1.185,2.777 1.185,3.747 C1.185,5.582 2.135,7.203 3.577,8.153 C2.696,8.127 1.866,7.886 1.141,7.492 L1.141,7.557 C1.141,10.123 2.994,12.263 5.455,12.748 C5.003,12.872 4.529,12.934 4.038,12.934 C3.691,12.934 3.353,12.903 3.027,12.840 C3.710,14.943 5.695,16.475 8.048,16.515 C6.208,17.936 3.890,18.782 1.372,18.782 C0.937,18.782 0.509,18.759 0.089,18.709 C2.468,20.209 5.294,21.087 8.330,21.087 C18.220,21.087 23.626,13.021 23.626,6.024 C23.626,5.794 23.622,5.565 23.612,5.339 C24.663,4.592 25.575,3.660 26.294,2.598 "/>
</svg>